<?xml version="1.0" encoding="ISO-8859-1" standalone="no"?>
<!-- Created with Make The Cut! -->
<!DOCTYPE svg PUBLIC "-//W3C//DTD SVG 1.1//EN" "http://www.w3.org/Graphics/SVG/1.1/DTD/svg11.dtd">
<svg mtc:dpi="90" xmlns="http://www.w3.org/2000/svg" version="1.1" width="3.26708in" height="4.61729in" viewBox="0 0 294.037 415.556" xmlns:inkscape="http://www.inkscape.org/namespaces/inkscape" xmlns:xlink="http://www.w3.org/1999/xlink" xmlns:mtc="http://www.make-the-cut.com/namespaces/make-the-cut">
	<g inkscape:groupmode="layer" label="Default Layer&#58; Basic&#58; circle &#40;J&#41; &#40;Nested 2&#41;" id="Default Layer&#58; Basic&#58; circle &#40;J&#41; &#40;Nested 2&#41;">
		<path label="Basic&#58; circle &#40;J&#41; &#40;Nested 2&#41;" id="Basic&#58; circle &#40;J&#41; &#40;Nested 2&#41;" fill="#000000" stroke="none"  stroke-linejoin="round" d="M145.196,415.324 C142.386,414.937 139.56,413.788 132.662,410.225 C119.219,403.282 119.033,403.226 107.005,402.561 C95.0235,401.898 90.804,401.33 85.8714,399.717 C80.1606,397.85 74.9192,394.304 71.8495,390.23 C71.252,389.437 71.0773,389.358 69.3735,389.109 C58.7413,387.554 50.5087,380.488 48.0503,370.808 L47.6161,369.098 L45.5328,368.341 C14.4841,357.06 -3.47074,327.817 0.54606,295.072 C1.80995,284.769 4.33851,275.484 9.4726,262.294 C14.6528,248.986 15.5598,245.457 15.5572,238.622 L15.5554,234.052 L14.6963,231.567 C14.2238,230.2 12.3677,226.139 10.5717,222.543 C6.075,213.54 5.66343,212.167 5.89643,206.95 C6.07736,202.899 6.5129,201.599 10.3223,193.739 C15.2304,183.613 15.8384,181.877 16.0699,177.333 C16.3633,171.575 14.8902,165.019 10.4218,152.196 C2.67282,129.958 1.02066,122.625 1.0354,110.536 C1.06252,88.2945 10.7611,67.8469 26.2109,57.4585 C30.9156,54.2951 37.1749,50.8127 43.5385,47.8183 L47.3774,46.0118 L48.0189,44.017 C50.7098,35.6491 57.4303,29.3723 65.9944,27.2282 C67.566,26.8348 69.2173,26.5129 69.6641,26.5129 C70.4247,26.5129 70.5636,26.3823 71.8458,24.4621 C75.3253,19.2512 79.8757,15.693 85.2124,14.0099 C88.3577,13.018 90.2866,12.8714 105.897,12.4384 C121.014,12.019 124.199,11.3056 129.282,7.20182 C140.854,-2.14098 150.957,-2.39619 164.096,6.32244 C172.888,12.1564 177.138,13.081 196.145,13.2948 C209.84,13.4488 211.153,13.6585 215.899,16.4472 C218.023,17.6953 221.717,21.3782 222.906,23.4339 L223.769,24.9253 L227.242,24.9828 C238.543,25.17 247.389,33.301 248.324,44.3597 L248.473,46.1303 L250.958,47.0129 C264.966,51.9902 275.581,61.207 284.024,75.7261 C297.458,98.8259 297.372,118.748 283.683,154.95 C279.449,166.149 278.06,172.73 278.642,178.834 C278.996,182.544 279.603,184.305 282.608,190.341 C287.611,200.39 288.82,206.005 287.563,213.356 C286.696,218.429 285.007,222.078 280.216,229.236 L278.576,231.685 L278.734,235.564 C279.232,247.745 280.087,251.399 285.321,263.7 C291.487,278.191 292.873,284.295 293.3,298.857 C293.562,307.803 292.928,316.879 291.641,322.611 C287.253,342.155 269.148,361.879 249.408,368.621 L246.772,369.521 L246.159,371.396 C243.341,380.007 236.639,386.284 228.026,388.38 C226.418,388.771 224.716,389.091 224.245,389.091 C223.449,389.091 223.273,389.236 221.727,391.173 C215.445,399.039 208.129,401.355 185.364,402.682 C173.287,403.386 173.943,403.187 164.657,408.957 C154.928,415.001 151.355,416.17 145.196,415.324 z " />
	</g>
	<g inkscape:groupmode="layer" label="Default Layer&#58; Basic&#58; circle &#40;J&#41; &#40;Nested 1&#41;" id="Default Layer&#58; Basic&#58; circle &#40;J&#41; &#40;Nested 1&#41;">
		<path label="Basic&#58; circle &#40;J&#41; &#40;Nested 1&#41;" id="Basic&#58; circle &#40;J&#41; &#40;Nested 1&#41;" fill="#7f7f7f" stroke="none"  stroke-linejoin="round" d="M145.494,404.549 C144.849,404.366 140.156,402.112 135.064,399.54 C121.659,392.769 121.265,392.669 104.244,391.745 C88.219,390.875 81.3621,387.793 77.8295,379.873 C77.1192,378.281 77.0086,378.15 76.4704,378.27 C66.4925,380.484 58.7148,374.533 57.6492,363.869 L57.3635,361.011 L54.7114,360.207 C33.7822,353.87 19.9903,341.345 13.7545,323.013 C8.23555,306.788 9.89444,290.322 19.5201,265.784 C25.1343,251.471 26.4889,245.778 26.2389,237.541 C26.0277,230.582 25.5061,228.883 20.3908,218.487 L16.6082,210.8 L16.5128,208.619 C16.3832,205.655 16.5769,205.089 20.4091,197.229 C26.3859,184.969 27.4246,180.674 26.5381,171.883 C25.8784,165.341 24.384,159.991 18.4632,142.971 C11.5059,122.972 10.0929,111.637 12.8684,98.0884 C15.5983,84.7626 22.483,73.1069 31.3532,66.7941 C36.3297,63.2523 48.1923,56.9918 54.7134,54.4657 L56.7454,53.6785 L57.0118,51.857 C58.5441,41.3776 65.1732,36.155 75.5915,37.2192 C77.0147,37.3646 77.4087,37.3393 77.4116,37.102 C77.4307,35.5714 81.2814,29.0816 83.3049,27.1698 C86.9144,23.7597 87.937,23.572 105.533,23.09 C124.253,22.5772 128.442,21.4703 136.783,14.8325 C144.042,9.05505 149.201,9.19123 158.559,15.4074 C169.091,22.4033 175.215,23.7391 197.408,23.881 C206.115,23.9367 206.744,23.9691 207.975,24.426 C212.124,25.9654 213.773,27.8826 215.591,33.2837 C216.198,35.0884 216.762,36.6417 216.843,36.7356 C216.925,36.8295 219.039,36.5922 221.542,36.2083 C228.945,35.0728 231.125,35.4415 234.33,38.3707 C237.116,40.9175 237.546,42.2496 237.708,48.8389 L237.838,54.0816 L241.353,55.0807 C257.45,59.6556 266.629,66.8377 275.051,81.4477 C286.582,101.451 286.203,118.253 273.461,151.995 C266.12,171.433 265.982,180.913 272.841,194.595 C277.142,203.175 277.958,206.363 277.114,211.291 C276.46,215.106 275.625,216.87 271.514,223.127 C267.891,228.642 268.066,228.1 268.105,233.674 C268.2,247.117 269.734,254.388 275.102,266.838 C280.051,278.318 281.22,282.262 282.289,291.096 C282.68,294.323 282.682,310.41 282.292,313.935 C281.082,324.866 276.975,333.761 269.029,342.659 C260.943,351.713 252.138,357.145 240.68,360.149 C237.214,361.057 237.463,360.787 236.933,364.221 C235.358,374.427 228.402,379.691 218.266,378.347 L216.976,378.176 L216.161,379.988 C212.057,389.121 207.779,390.668 182.291,392.233 C170.41,392.963 170.058,393.085 157.691,400.763 C151.245,404.765 148.862,405.505 145.494,404.549 z " />
	</g>
	<g inkscape:groupmode="layer" label="Default Layer&#58; Basic&#58; circle &#40;J&#41;" id="Default Layer&#58; Basic&#58; circle &#40;J&#41;">
		<path label="Basic&#58; circle &#40;J&#41;" id="Basic&#58; circle &#40;J&#41;" fill="#ffffff" stroke="none"  stroke-linejoin="round" d="M148.407,38.1205 C152.819,38.1205 156.396,41.6973 156.396,46.109 C156.396,50.5207 152.819,54.0976 148.407,54.0976 C143.996,54.0976 140.422,50.5207 140.422,46.109 C140.422,41.6973 143.996,38.1205 148.407,38.1205 z M22.9865,101.278 C20.718,112.97 22.365,122.727 30.3134,144.68 C39.1521,169.093 39.6334,182.076 32.2584,197.15 L26.9896,207.919 L31.9372,217.692 C39.3842,232.402 38.7348,247.217 29.695,268.839 C21.7188,287.918 19.3351,303.884 22.6396,316.098 C27.3021,333.329 38.9557,344.518 58.0087,350.057 C68.1638,353.009 68.3658,353.218 68.1473,360.518 C67.9099,368.451 70.2217,369.541 80.2639,366.231 C83.9106,365.029 84.7993,365.742 85.8997,370.752 C87.7911,379.364 90.1564,380.482 108.154,381.273 C121.414,381.855 126.5,383.091 136.19,388.084 L148.027,394.183 L157.664,388.218 C165.943,383.095 169.753,382.131 184.699,381.381 C194.267,380.901 203.165,379.651 204.471,378.604 C205.777,377.557 207.433,374.024 208.152,370.752 C209.252,365.742 210.141,365.029 213.787,366.231 C223.681,369.492 226.091,368.398 226.755,360.345 C227.1,356.153 228.452,352.426 229.759,352.062 C231.065,351.699 235.979,350.357 240.679,349.08 C251.121,346.242 261.946,337.059 267.763,326.102 C271.216,319.597 272.099,314.59 272.032,301.881 C271.96,288.143 270.993,283.721 265.245,270.842 C260.158,259.447 258.328,252.198 257.657,240.803 C256.853,227.143 257.244,225.097 261.976,218.186 C268.351,208.875 268.352,208.78 262.173,197.172 C255.38,184.412 255.438,169.427 262.349,151.28 C275.673,116.291 276.096,103.506 264.559,84.5447 C257.768,73.3844 250.014,68.0101 235.639,64.4992 C227.358,62.477 227.128,62.1997 227.128,54.2602 L227.128,46.0998 L218.303,47.4232 C209.572,48.7325 209.453,48.6713 207.134,41.6428 L204.789,34.5391 L190.177,34.5391 C174.571,34.5391 162.463,31.2407 152.793,24.3555 C147.456,20.5546 146.444,20.416 143.414,23.0705 C134.999,30.4412 125.854,33.3297 109.978,33.6317 C101.167,33.7993 92.8674,34.0721 91.5349,34.2378 C90.2023,34.4035 88.0278,38.1579 86.7027,42.5808 C84.6443,49.451 83.6846,50.4214 80.114,49.243 C70.4189,46.0431 67.9569,47.162 67.3028,55.0654 C66.961,59.1958 65.6092,62.5839 64.299,62.5946 C60.0932,62.6292 40.0449,72.7072 35.1924,77.2263 C29.0518,82.9446 24.9908,90.9467 22.9865,101.278 z " />
	</g>
</svg>
